<svg xmlns="http://www.w3.org/2000/svg" viewBox="0 0 64 80" x="0px" y="0px"><path d="m60,48h-12.11c1.3-1.27,2.11-3.04,2.11-5v-7h3c1.65,0,3-1.35,3-3s-1.35-3-3-3h-4c-.55,0-1,.45-1,1v12c0,2.76-2.24,5-5,5h-22c-2.76,0-5-2.24-5-5v-12c0-.55-.45-1-1-1h-4c-1.65,0-3,1.35-3,3s1.35,3,3,3h3v7c0,1.96.81,3.73,2.11,5H4c-.55,0-1,.45-1,1v4c0,.55.45,1,1,1h2v7c0,.55.45,1,1,1h50c.55,0,1-.45,1-1v-7h2c.55,0,1-.45,1-1v-4c0-.55-.45-1-1-1Zm-10-16h3c.55,0,1,.45,1,1s-.45,1-1,1h-3v-2Zm-36,2h-3c-.55,0-1-.45-1-1s.45-1,1-1h3v2Zm42,26H8v-6h48v6Zm3-8H5v-2h54v2Z"/><circle cx="44" cy="57" r="1"/><circle cx="32" cy="57" r="1"/><circle cx="20" cy="57" r="1"/><path d="m14,28h36c1.65,0,3-1.35,3-3s-1.35-3-3-3h-6.11c-.41-1.98-1.98-3.55-3.97-3.92-.43-2.32-2.47-4.08-4.92-4.08s-4.51,1.78-4.92,4.12c-.35-.08-.71-.12-1.08-.12-2.41,0-4.43,1.72-4.9,4h-10.1c-1.65,0-3,1.35-3,3s1.35,3,3,3Zm15-8c.54,0,1.06.15,1.53.44.33.21.75.18,1.07-.04.32-.21.49-.62.44-1-.02-.13-.04-.26-.04-.4,0-1.65,1.35-3,3-3s3,1.35,3,3c0,.55.45,1,1,1,1.3,0,2.42.84,2.83,2h-15.66c.41-1.16,1.53-2,2.83-2Zm-15,4h36c.55,0,1,.45,1,1s-.45,1-1,1H14c-.55,0-1-.45-1-1s.45-1,1-1Z"/><path d="m19,15c0,1.65,1.35,3,3,3s3-1.35,3-3-1.35-3-3-3-3,1.35-3,3Zm4,0c0,.55-.45,1-1,1s-1-.45-1-1,.45-1,1-1,1,.45,1,1Z"/><path d="m18.06,9.52l35.49,6.04c.06,0,.11.01.17.01.48,0,.9-.34.98-.83.22-1.32-.08-2.64-.85-3.73-.77-1.09-1.92-1.81-3.24-2.04l-8.87-1.51.5-2.96c.04-.26-.02-.53-.17-.75-.15-.22-.39-.36-.65-.41l-7.89-1.34c-.26-.04-.53.02-.75.17s-.36.39-.41.65l-.5,2.96-8.87-1.51c-2.73-.46-5.31,1.37-5.77,4.09-.04.26.02.53.17.75.15.22.39.36.65.41Zm16.13-5.37l5.92,1.01-.34,1.97-2.96-.5-2.96-.5.34-1.97Zm-11.52,2.1l9.86,1.68s0,0,0,0l3.94.67,13.8,2.35c.79.13,1.48.57,1.94,1.22.26.37.44.79.51,1.22L19.55,7.75c.6-1.08,1.84-1.71,3.12-1.5Z"/></svg>